# xmcd CD database file
#
# Track frame offsets:
#	150
#	23816
#	51341
#	77135
#	103253
#	108803
#	140690
#	167824
#	193328
#	210242
#	236154
#
# Disc length: 3511 seconds
#
# Revision: 0
# Processed by: cddbd v1.5.2PL0 Copyright (c) Steve Scherf et al.
# Submitted via: CdAid (MTCDDB.DLL V2003.12.21)
#
DISCID=9a0db50b
DTITLE=Delon and Dalcan - Tanz
DYEAR=2008
DGENRE=Techno
TTITLE0=The Tide
TTITLE1=Dirty Tanzer
TTITLE2=Beyond Clouds
TTITLE3=Friend
TTITLE4=Colette
TTITLE5=248 KM
TTITLE6=Dreimusik
TTITLE7=Woh
TTITLE8=Everlast
TTITLE9=Academy
TTITLE10=Ultracolor
EXTD=ID3G:  18 YEAR: 2008
EXTT0=
EXTT1=
EXTT2=
EXTT3=
EXTT4=
EXTT5=
EXTT6=
EXTT7=
EXTT8=
EXTT9=
EXTT10=
PLAYORDER=
